<svg width="26" height="30" viewBox="0 0 26 30" fill="none" xmlns="http://www.w3.org/2000/svg">
<g filter="url(#filter0_b)">
<path fill-rule="evenodd" clip-rule="evenodd" d="M10.5194 3.46295C10.5923 2.20806 11.6588 1.2 12.9456 1.2C14.2323 1.2 15.2988 2.20806 15.3717 3.46295L10.5194 3.46295ZM9.31808 3.46295C9.39151 1.5311 11.0107 0 12.9456 0C14.8804 0 16.4996 1.5311 16.573 3.46295H25.0667C25.3981 3.46295 25.6667 3.73158 25.6667 4.06295C25.6667 4.39433 25.3981 4.66295 25.0667 4.66295H0.826074C0.494703 4.66295 0.226074 4.39433 0.226074 4.06295C0.226074 3.73158 0.494703 3.46295 0.826074 3.46295H9.31808ZM2.5567 5.19443C2.88808 5.19443 3.1567 5.46306 3.1567 5.79443V26.1693C3.1567 27.4948 4.23122 28.5693 5.5567 28.5693H20.3344C21.6599 28.5693 22.7344 27.4948 22.7344 26.1693V5.79443C22.7344 5.46306 23.003 5.19443 23.3344 5.19443C23.6658 5.19443 23.9344 5.46306 23.9344 5.79443V26.1693C23.9344 28.1576 22.3226 29.7693 20.3344 29.7693H5.5567C3.56848 29.7693 1.9567 28.1576 1.9567 26.1693V5.79443C1.9567 5.46306 2.22533 5.19443 2.5567 5.19443ZM11.2137 10.1231C11.2137 9.16685 11.989 8.39165 12.9452 8.39165C13.9015 8.39165 14.6767 9.16685 14.6767 10.1231V23.1092C14.6767 24.0654 13.9015 24.8407 12.9452 24.8407C11.989 24.8407 11.2137 24.0654 11.2137 23.1092V10.1231ZM7.3178 10.1231C6.6006 10.1231 6.0192 10.7045 6.0192 11.4217V22.6763C6.0192 23.3935 6.6006 23.9749 7.3178 23.9749C8.035 23.9749 8.61641 23.3935 8.61641 22.6763V11.4217C8.61641 10.7045 8.035 10.1231 7.3178 10.1231ZM18.5725 10.1231C17.8553 10.1231 17.2739 10.7045 17.2739 11.4217V22.6763C17.2739 23.3935 17.8553 23.9749 18.5725 23.9749C19.2897 23.9749 19.8711 23.3935 19.8711 22.6763V11.4217C19.8711 10.7045 19.2897 10.1231 18.5725 10.1231Z" fill="#EB2C4E"/>
</g>
<defs>
<filter id="filter0_b" x="-9.77393" y="-10" width="45.4406" height="49.7693" filterUnits="userSpaceOnUse" color-interpolation-filters="sRGB">
<feFlood flood-opacity="0" result="BackgroundImageFix"/>
<feGaussianBlur in="BackgroundImage" stdDeviation="5"/>
<feComposite in2="SourceAlpha" operator="in" result="effect1_backgroundBlur"/>
<feBlend mode="normal" in="SourceGraphic" in2="effect1_backgroundBlur" result="shape"/>
</filter>
</defs>
</svg>
