<svg width="30" height="21" viewBox="0 0 30 21" fill="none" xmlns="http://www.w3.org/2000/svg">
<path fill-rule="evenodd" clip-rule="evenodd" d="M5 2H25C25.8783 2 26.6685 2.37746 27.2171 2.97901L16.1668 11.6564C15.6317 12.0766 14.8808 12.084 14.3375 11.6744L2.79099 2.97013C3.3393 2.37374 4.126 2 5 2ZM2.24493 3.8108C2.08733 4.17542 2 4.57751 2 5V16C2 17.6569 3.34315 19 5 19H25C26.6569 19 28 17.6569 28 16V5C28 4.58249 27.9147 4.18491 27.7606 3.82371L16.7844 12.4428C15.8925 13.1432 14.641 13.1555 13.7355 12.4729L2.24493 3.8108ZM1 5C1 2.79086 2.79086 1 5 1H25C27.2091 1 29 2.79086 29 5V16C29 18.2091 27.2091 20 25 20H5C2.79086 20 1 18.2091 1 16V5Z" fill="#FEFEFE"/>
<path d="M27.2171 2.97901L27.5259 3.37226L27.9493 3.0398L27.5866 2.64208L27.2171 2.97901ZM16.1668 11.6564L16.4756 12.0496H16.4756L16.1668 11.6564ZM14.3375 11.6744L14.0365 12.0737L14.3375 11.6744ZM2.79099 2.97013L2.42291 2.63172L2.04981 3.03755L2.49001 3.36939L2.79099 2.97013ZM2.24493 3.8108L2.54592 3.41154L2.03822 3.02881L1.78597 3.61242L2.24493 3.8108ZM27.7606 3.82371L28.2205 3.6275L27.9646 3.02777L27.4518 3.43047L27.7606 3.82371ZM16.7844 12.4428L17.0932 12.8361L16.7844 12.4428ZM13.7355 12.4729L14.0365 12.0737L13.7355 12.4729ZM25 1.5H5V2.5H25V1.5ZM27.5866 2.64208C26.9472 1.94102 26.0247 1.5 25 1.5V2.5C25.7319 2.5 26.3898 2.81389 26.8477 3.31594L27.5866 2.64208ZM16.4756 12.0496L27.5259 3.37226L26.9083 2.58576L15.858 11.2631L16.4756 12.0496ZM14.0365 12.0737C14.7609 12.6197 15.7621 12.6099 16.4756 12.0496L15.858 11.2631C15.5013 11.5432 15.0007 11.5482 14.6385 11.2751L14.0365 12.0737ZM2.49001 3.36939L14.0365 12.0737L14.6385 11.2751L3.09197 2.57087L2.49001 3.36939ZM5 1.5C3.98033 1.5 3.06192 1.93668 2.42291 2.63172L3.15907 3.30853C3.61667 2.81081 4.27167 2.5 5 2.5V1.5ZM1.78597 3.61242C1.6018 4.03851 1.5 4.50802 1.5 5H2.5C2.5 4.647 2.57286 4.31233 2.7039 4.00917L1.78597 3.61242ZM1.5 5V16H2.5V5H1.5ZM1.5 16C1.5 17.933 3.067 19.5 5 19.5V18.5C3.61929 18.5 2.5 17.3807 2.5 16H1.5ZM5 19.5H25V18.5H5V19.5ZM25 19.5C26.933 19.5 28.5 17.933 28.5 16H27.5C27.5 17.3807 26.3807 18.5 25 18.5V19.5ZM28.5 16V5H27.5V16H28.5ZM28.5 5C28.5 4.51383 28.4006 4.04959 28.2205 3.6275L27.3007 4.01992C27.4288 4.32022 27.5 4.65116 27.5 5H28.5ZM27.4518 3.43047L16.4756 12.0496L17.0932 12.8361L28.0694 4.21696L27.4518 3.43047ZM16.4756 12.0496C15.7621 12.6099 14.7609 12.6198 14.0365 12.0737L13.4345 12.8722C14.5211 13.6913 16.023 13.6765 17.0932 12.8361L16.4756 12.0496ZM14.0365 12.0737L2.54592 3.41154L1.94395 4.21006L13.4345 12.8722L14.0365 12.0737ZM5 0.5C2.51472 0.5 0.5 2.51472 0.5 5H1.5C1.5 3.067 3.067 1.5 5 1.5V0.5ZM25 0.5H5V1.5H25V0.5ZM29.5 5C29.5 2.51472 27.4853 0.5 25 0.5V1.5C26.933 1.5 28.5 3.067 28.5 5H29.5ZM29.5 16V5H28.5V16H29.5ZM25 20.5C27.4853 20.5 29.5 18.4853 29.5 16H28.5C28.5 17.933 26.933 19.5 25 19.5V20.5ZM5 20.5H25V19.5H5V20.5ZM0.5 16C0.5 18.4853 2.51472 20.5 5 20.5V19.5C3.067 19.5 1.5 17.933 1.5 16H0.5ZM0.5 5V16H1.5V5H0.5Z" fill="white"/>
</svg>
