<svg width="186" height="53" viewBox="0 0 186 53" fill="none" xmlns="http://www.w3.org/2000/svg">
<path d="M7.825 36.3001C6.44167 36.3001 5.1 36.1168 3.8 35.7501C2.51667 35.3668 1.48333 34.8751 0.7 34.2751L2.075 31.2251C2.825 31.7751 3.71667 32.2168 4.75 32.5501C5.78333 32.8835 6.81667 33.0501 7.85 33.0501C9 33.0501 9.85 32.8835 10.4 32.5501C10.95 32.2001 11.225 31.7418 11.225 31.1751C11.225 30.7585 11.0583 30.4168 10.725 30.1501C10.4083 29.8668 9.99167 29.6418 9.475 29.4751C8.975 29.3085 8.29167 29.1251 7.425 28.9251C6.09167 28.6085 5 28.2918 4.15 27.9751C3.3 27.6585 2.56667 27.1501 1.95 26.4501C1.35 25.7501 1.05 24.8168 1.05 23.6501C1.05 22.6335 1.325 21.7168 1.875 20.9001C2.425 20.0668 3.25 19.4085 4.35 18.9251C5.46667 18.4418 6.825 18.2001 8.425 18.2001C9.54167 18.2001 10.6333 18.3335 11.7 18.6001C12.7667 18.8668 13.7 19.2501 14.5 19.7501L13.25 22.8251C11.6333 21.9085 10.0167 21.4501 8.4 21.4501C7.26667 21.4501 6.425 21.6335 5.875 22.0001C5.34167 22.3668 5.075 22.8501 5.075 23.4501C5.075 24.0501 5.38333 24.5001 6 24.8001C6.63333 25.0835 7.59167 25.3668 8.875 25.6501C10.2083 25.9668 11.3 26.2835 12.15 26.6001C13 26.9168 13.725 27.4168 14.325 28.1001C14.9417 28.7835 15.25 29.7085 15.25 30.8751C15.25 31.8751 14.9667 32.7918 14.4 33.6251C13.85 34.4418 13.0167 35.0918 11.9 35.5751C10.7833 36.0585 9.425 36.3001 7.825 36.3001ZM21.3982 21.8001H15.7982V18.5001H31.0482V21.8001H25.4482V36.0001H21.3982V21.8001ZM40.7094 36.3001C38.2094 36.3001 36.2594 35.6085 34.8594 34.2251C33.476 32.8418 32.7844 30.8668 32.7844 28.3001V18.5001H36.8344V28.1501C36.8344 31.2835 38.1344 32.8501 40.7344 32.8501C42.001 32.8501 42.9677 32.4751 43.6344 31.7251C44.301 30.9585 44.6344 29.7668 44.6344 28.1501V18.5001H48.6344V28.3001C48.6344 30.8668 47.9344 32.8418 46.5344 34.2251C45.151 35.6085 43.2094 36.3001 40.7094 36.3001ZM52.6365 18.5001H60.5865C62.4865 18.5001 64.1615 18.8668 65.6115 19.6001C67.0782 20.3168 68.2115 21.3335 69.0115 22.6501C69.8282 23.9668 70.2365 25.5001 70.2365 27.2501C70.2365 29.0001 69.8282 30.5335 69.0115 31.8501C68.2115 33.1668 67.0782 34.1918 65.6115 34.9251C64.1615 35.6418 62.4865 36.0001 60.5865 36.0001H52.6365V18.5001ZM60.3865 32.6751C62.1365 32.6751 63.5282 32.1918 64.5615 31.2251C65.6115 30.2418 66.1365 28.9168 66.1365 27.2501C66.1365 25.5835 65.6115 24.2668 64.5615 23.3001C63.5282 22.3168 62.1365 21.8251 60.3865 21.8251H56.6865V32.6751H60.3865ZM73.2908 18.5001H77.3408V36.0001H73.2908V18.5001Z" fill="white"/>
<path d="M149.675 36.1501C148.375 36.1501 147.125 35.9418 145.925 35.5251C144.742 35.1085 143.825 34.5585 143.175 33.8751L143.9 32.4501C144.533 33.0835 145.375 33.6001 146.425 34.0001C147.475 34.3835 148.558 34.5751 149.675 34.5751C151.242 34.5751 152.417 34.2918 153.2 33.7251C153.983 33.1418 154.375 32.3918 154.375 31.4751C154.375 30.7751 154.158 30.2168 153.725 29.8001C153.308 29.3835 152.792 29.0668 152.175 28.8501C151.558 28.6168 150.7 28.3668 149.6 28.1001C148.283 27.7668 147.233 27.4501 146.45 27.1501C145.667 26.8335 144.992 26.3585 144.425 25.7251C143.875 25.0918 143.6 24.2335 143.6 23.1501C143.6 22.2668 143.833 21.4668 144.3 20.7501C144.767 20.0168 145.483 19.4335 146.45 19.0001C147.417 18.5668 148.617 18.3501 150.05 18.3501C151.05 18.3501 152.025 18.4918 152.975 18.7751C153.942 19.0418 154.775 19.4168 155.475 19.9001L154.85 21.3751C154.117 20.8918 153.333 20.5335 152.5 20.3001C151.667 20.0501 150.85 19.9251 150.05 19.9251C148.517 19.9251 147.358 20.2251 146.575 20.8251C145.808 21.4085 145.425 22.1668 145.425 23.1001C145.425 23.8001 145.633 24.3668 146.05 24.8001C146.483 25.2168 147.017 25.5418 147.65 25.7751C148.3 25.9918 149.167 26.2335 150.25 26.5001C151.533 26.8168 152.567 27.1335 153.35 27.4501C154.15 27.7501 154.825 28.2168 155.375 28.8501C155.925 29.4668 156.2 30.3085 156.2 31.3751C156.2 32.2585 155.958 33.0668 155.475 33.8001C155.008 34.5168 154.283 35.0918 153.3 35.5251C152.317 35.9418 151.108 36.1501 149.675 36.1501ZM174.856 18.5001V36.0001H173.031V27.9251H162.081V36.0001H160.231V18.5001H162.081V26.3001H173.031V18.5001H174.856ZM180.568 18.5001H182.418V36.0001H180.568V18.5001Z" fill="white"/>
<path d="M100.675 35.1501C99.375 35.1501 98.125 34.9418 96.925 34.5251C95.7417 34.1085 94.825 33.5585 94.175 32.8751L94.9 31.4501C95.5333 32.0835 96.375 32.6001 97.425 33.0001C98.475 33.3835 99.5583 33.5751 100.675 33.5751C102.242 33.5751 103.417 33.2918 104.2 32.7251C104.983 32.1418 105.375 31.3918 105.375 30.4751C105.375 29.7751 105.158 29.2168 104.725 28.8001C104.308 28.3835 103.792 28.0668 103.175 27.8501C102.558 27.6168 101.7 27.3668 100.6 27.1001C99.2833 26.7668 98.2333 26.4501 97.45 26.1501C96.6667 25.8335 95.9917 25.3585 95.425 24.7251C94.875 24.0918 94.6 23.2335 94.6 22.1501C94.6 21.2668 94.8333 20.4668 95.3 19.7501C95.7667 19.0168 96.4833 18.4335 97.45 18.0001C98.4167 17.5668 99.6167 17.3501 101.05 17.3501C102.05 17.3501 103.025 17.4918 103.975 17.7751C104.942 18.0418 105.775 18.4168 106.475 18.9001L105.85 20.3751C105.117 19.8918 104.333 19.5335 103.5 19.3001C102.667 19.0501 101.85 18.9251 101.05 18.9251C99.5167 18.9251 98.3583 19.2251 97.575 19.8251C96.8083 20.4085 96.425 21.1668 96.425 22.1001C96.425 22.8001 96.6333 23.3668 97.05 23.8001C97.4833 24.2168 98.0167 24.5418 98.65 24.7751C99.3 24.9918 100.167 25.2335 101.25 25.5001C102.533 25.8168 103.567 26.1335 104.35 26.4501C105.15 26.7501 105.825 27.2168 106.375 27.8501C106.925 28.4668 107.2 29.3085 107.2 30.3751C107.2 31.2585 106.958 32.0668 106.475 32.8001C106.008 33.5168 105.283 34.0918 104.3 34.5251C103.317 34.9418 102.108 35.1501 100.675 35.1501ZM118.281 35.1501C116.014 35.1501 114.248 34.5001 112.981 33.2001C111.714 31.9001 111.081 30.0085 111.081 27.5251V17.5001H112.931V27.4501C112.931 29.4835 113.389 31.0001 114.306 32.0001C115.223 33.0001 116.548 33.5001 118.281 33.5001C120.031 33.5001 121.364 33.0001 122.281 32.0001C123.198 31.0001 123.656 29.4835 123.656 27.4501V17.5001H125.456V27.5251C125.456 30.0085 124.823 31.9001 123.556 33.2001C122.306 34.5001 120.548 35.1501 118.281 35.1501Z" fill="white"/>
<circle cx="110.5" cy="26.5001" r="25.75" stroke="url(#paint0_linear)" stroke-width="1.5"/>
<defs>
<linearGradient id="paint0_linear" x1="110.5" y1="0.00012207" x2="110.5" y2="53.0001" gradientUnits="userSpaceOnUse">
<stop stop-color="#FF8A00"/>
<stop offset="1" stop-color="#FF002E"/>
</linearGradient>
</defs>
</svg>
