<svg width="93" height="108" viewBox="0 0 93 108" fill="none" xmlns="http://www.w3.org/2000/svg">
<g filter="url(#filter0_d)">
<rect x="5" y="5" width="83" height="98" rx="9" fill="white"/>
</g>
<path fill-rule="evenodd" clip-rule="evenodd" d="M25.9952 25.4153C25.5474 26.6058 24.6833 29.1862 24.8097 29.9835C24.9678 30.9802 25.363 34.884 22.834 38.2894C20.8109 41.0137 22.9394 40.1443 24.2565 39.3691C21.7276 42.6084 21.696 46.1965 22.834 49.2531C22.2545 49.613 21.6012 50.3495 23.6243 50.4159C24.7896 50.4542 24.2266 52.1679 23.5589 54.1999C22.7776 56.5777 21.8532 59.3912 23.3872 60.466C24.2091 59.4029 24.5727 59.4693 24.6517 59.6354C24.9383 62.1545 25.2455 67.2947 24.2126 67.922L24.1775 67.9413C24.1894 67.9354 24.2011 67.929 24.2126 67.922C25.5092 67.2101 25.7313 67.1945 25.6791 67.2768C25.521 68.6334 25.4894 71.4131 26.6274 71.6789C27.1332 70.8815 27.4177 70.4053 27.4968 70.2669C29.3408 73.2016 33.424 79.1542 35.0046 79.4864C36.0161 78.6891 36.4798 78.8219 36.5851 78.9881C38.1921 80.4831 41.975 83.5064 44.251 83.6393C45.389 82.5097 46.095 81.5629 46.3058 81.2306C46.5165 81.9228 47.0012 83.3071 47.2541 83.3071C47.5702 83.3071 53.1813 81.6459 56.1844 79.4034C56.1844 80.3336 56.2898 80.7323 56.3425 80.8153C58.3182 79.5972 62.6016 76.3136 63.9293 72.9248C64.4983 73.7221 64.7987 73.8661 64.8777 73.8384C66.5373 72.9248 67.1695 68.2735 67.1695 67.6921C68.2443 68.6888 68.6711 68.7719 68.7501 68.6888C69.2115 67.3956 68.775 60.3612 68.5327 59.9069C69.2859 60.7626 70.0964 61.5761 70.4098 61.878C70.3044 61.0197 70.0462 59.2367 69.8565 58.971C69.6669 58.7052 69.9356 56.3684 70.0936 55.2333C70.3465 54.7017 69.4614 52.9077 68.9872 52.0771C69.6827 52.21 70.9103 51.6341 71.4371 51.3296C70.5728 50.6807 70.2873 48.3875 70 46.0805C69.7356 43.9576 69.4697 41.8229 68.7501 40.9472C69.5088 41.1466 69.8565 41.0303 69.9356 40.9472C70.15 39.6328 69.6858 38.5562 69.1421 37.2949C68.4832 35.7667 67.7076 33.9676 67.8808 31.1463C68.6711 30.1496 67.8018 25.3322 67.0115 25C66.8728 25.3644 66.7798 26.1523 66.6589 27.1755C66.2289 30.8167 65.4473 37.4363 61.0052 38.5385C60.3914 38.5816 60.4557 39.4485 60.5177 40.2861C60.5755 41.0662 60.6313 41.8208 60.1359 41.8609C60.0727 41.7944 59.53 41.5563 59.2666 41.4456C60.1359 43.1068 59.7408 45.4324 59.3456 45.5985C59.1633 45.6752 59.1156 46.2823 59.0627 46.9549C59.001 47.74 58.9323 48.6141 58.6344 48.8378C58.0812 49.2531 57.2118 45.3493 56.9747 41.4456C56.0264 40.6482 51.0475 38.2894 48.6766 37.2096L46.7009 38.0402L44.6461 37.2096L36.111 41.6948C35.8475 43.9927 35.1784 48.6717 34.6094 49.0039C34.0404 49.3362 33.8455 46.7613 33.8191 45.4324L33.3449 45.2663C33.2396 44.2142 33.1869 41.9772 33.8191 41.4456C33.5662 41.4456 33.1869 41.7778 33.0288 41.9439C32.7654 41.3625 32.2701 39.9838 32.3966 39.12C30.3418 38.8708 26.5484 35.1331 25.9952 25.4153ZM45.1203 40.9472C45.6735 41.4455 47.017 41.7778 47.8863 40.9472C49.7371 40.3487 53.7037 42.3783 55.5703 43.3334C55.7761 43.4386 55.9563 43.5308 56.1054 43.6051C57.3699 47.4258 56.5796 54.1535 53.8135 53.9043C51.8378 54.0151 47.8389 53.3229 47.6492 49.6683C48.2182 47.8078 49.4669 47.0105 50.0201 46.8444C48.9137 45.7646 44.0139 45.7646 43.1446 46.8444C44.9886 48.0349 47.4912 50.9807 42.7494 53.2399C36.8222 56.0639 36.348 51.4126 36.348 48.5886C36.3923 48.1 36.3932 47.5202 36.394 46.9295C36.3963 45.4113 36.3987 43.821 37.1383 43.522C39.1931 42.4422 43.6661 40.4156 45.1203 40.9472Z" fill="#252525"/>
<defs>
<filter id="filter0_d" x="0" y="0" width="93" height="108" filterUnits="userSpaceOnUse" color-interpolation-filters="sRGB">
<feFlood flood-opacity="0" result="BackgroundImageFix"/>
<feColorMatrix in="SourceAlpha" type="matrix" values="0 0 0 0 0 0 0 0 0 0 0 0 0 0 0 0 0 0 127 0"/>
<feOffset/>
<feGaussianBlur stdDeviation="2.5"/>
<feColorMatrix type="matrix" values="0 0 0 0 0 0 0 0 0 0 0 0 0 0 0 0 0 0 0.15 0"/>
<feBlend mode="normal" in2="BackgroundImageFix" result="effect1_dropShadow"/>
<feBlend mode="normal" in="SourceGraphic" in2="effect1_dropShadow" result="shape"/>
</filter>
</defs>
</svg>
