<svg width="93" height="108" viewBox="0 0 93 108" fill="none" xmlns="http://www.w3.org/2000/svg">
<g filter="url(#filter0_d)">
<rect x="5" y="5" width="83" height="98" rx="9" fill="white"/>
</g>
<path fill-rule="evenodd" clip-rule="evenodd" d="M66.6051 44.3192C69.0232 8.34427 28.6069 10.1208 26.8303 44.3192C26.6329 50.0601 25.9717 62.5189 24.9058 66.4272C24.3136 67.4636 22.9318 74.2243 25.4979 78.7643C29.9393 92.8286 49.4319 89.4236 51.8499 88.3872C52.5609 88.3699 54.1674 86.9512 56.2093 85.1482C59.9786 81.8197 65.2315 77.1812 69.0725 77.6293C69.4179 76.445 68.5297 71.6582 66.6051 70.1777C69.2785 67.2199 68.3951 62.0821 67.4406 56.5308C66.7389 52.4498 65.9988 48.1454 66.6051 44.3192ZM47.6554 65.1442C58.364 65.1442 62.7067 48.119 61.9664 43.2829C61.2262 38.4468 50.0241 30.9952 48.0502 30.9952C46.0763 30.9952 34.282 35.3872 34.1833 45.6023C34.0846 55.8174 41.2895 65.1442 47.6554 65.1442Z" fill="#222222"/>
<path d="M55.551 72.1023C45.3359 77.6787 30.8768 70.5232 30.334 50.3397C32.0612 64.4533 41.7828 74.7187 54.2679 71.2141C56.1432 70.6877 59.9923 69.9507 60.3871 71.2141C59.8443 70.8193 58.1171 70.4442 55.551 72.1023Z" fill="#2C2C2C"/>
<path d="M36.0583 35.1404C39.6608 27.8862 46.9643 23.7903 52.3926 25.5669C46.1748 22.5566 39.1179 22.4086 36.0583 35.1404Z" fill="#0E0E0E"/>
<path d="M34.8246 30.9458C34.7726 31.0463 34.7224 31.1519 34.674 31.2623C34.1955 32.9087 33.8068 40.2245 33.9857 42.1479C33.3675 40.4835 33.3908 34.1905 34.674 31.2623C34.7234 31.0923 34.7738 30.9828 34.8246 30.9458Z" fill="#111111"/>
<path d="M58.1174 75.9515C47.9516 82.5641 32.9004 78.1721 31.4199 62.1833C37.5391 78.715 51.0112 78.0734 55.7486 75.2112C56.0941 74.7178 63.595 72.1023 65.0755 73.7801C63.8582 73.5334 60.7624 73.6222 58.1174 75.9515Z" fill="#111111"/>
<path d="M27.0276 69.0921C35.7622 86.0679 52.8368 84.242 59.8442 78.0735C54.0211 81.8733 36.6012 83.8472 27.0276 69.0921Z" fill="#111111"/>
<path d="M28.7053 65.6377C31.1234 79.2085 45.1383 81.1824 50.5666 79.702C44.2007 80.5902 31.4195 76.7904 28.7053 65.6377Z" fill="#353535"/>
<path d="M51.2086 85.6731C39.8091 89.917 29.8408 84.1433 25.7942 78.1721C28.8044 89.6209 44.5959 91.2001 52.1955 88.0418C54.1695 87.8937 61.2756 78.3695 68.7766 77.5306C68.1186 77.3168 66.3289 77.0174 64.4339 77.5306C62.5389 78.0438 54.8275 83.1728 51.2086 85.6731Z" fill="#111111"/>
<path d="M52.3433 70.2271C47.3591 70.8192 38.3777 64.9961 36.0583 55.62C38.6738 60.012 42.2762 64.552 47.2604 65.1442C55.9457 65.5883 59.6962 54.8797 61.7688 50.241C61.6208 56.5576 57.6236 69.3881 52.3433 70.2271Z" fill="#111111"/>
<defs>
<filter id="filter0_d" x="0" y="0" width="93" height="108" filterUnits="userSpaceOnUse" color-interpolation-filters="sRGB">
<feFlood flood-opacity="0" result="BackgroundImageFix"/>
<feColorMatrix in="SourceAlpha" type="matrix" values="0 0 0 0 0 0 0 0 0 0 0 0 0 0 0 0 0 0 127 0"/>
<feOffset/>
<feGaussianBlur stdDeviation="2.5"/>
<feColorMatrix type="matrix" values="0 0 0 0 0 0 0 0 0 0 0 0 0 0 0 0 0 0 0.25 0"/>
<feBlend mode="normal" in2="BackgroundImageFix" result="effect1_dropShadow"/>
<feBlend mode="normal" in="SourceGraphic" in2="effect1_dropShadow" result="shape"/>
</filter>
</defs>
</svg>
